<?xml version="1.0" encoding="UTF-8"?><svg xmlns="http://www.w3.org/2000/svg" width="329" height="210" version="1.0" shape-rendering="geometricPrecision"><defs><style type="text/css">@font-face {
  font-family: sans-serif;
}</style><filter id="shadowBlur" x="0" y="0" width="200%" height="200%"><feOffset in="SourceGraphic" dx="2.10021" dy="2.10021" result="offOut"></feOffset><feGaussianBlur in="offOut" stdDeviation="3"></feGaussianBlur></filter></defs><g stroke-width="1" stroke-linecap="square" stroke-linejoin="round"><rect x="0" y="0" width="329" height="210" style="fill: #ffffff"></rect><path stroke="#969696" fill="#969696" filter="url(#shadowBlur)" d="M248.0 85.0 C282.79395 85.0 311.0 93.95431 311.0 105.0 C311.0 116.04569 282.79395 125.0 248.0 125.0 C213.20605 125.0 185.0 116.04569 185.0 105.0 C185.0 93.95431 213.20605 85.0 248.0 85.0 z"></path><path stroke="#969696" fill="#969696" filter="url(#shadowBlur)" d="M248.0 25.0 C282.79395 25.0 311.0 33.954308 311.0 45.0 C311.0 56.045692 282.79395 65.0 248.0 65.0 C213.20605 65.0 185.0 56.045692 185.0 45.0 C185.0 33.954308 213.20605 25.0 248.0 25.0 z"></path><path stroke="#969696" fill="#969696" filter="url(#shadowBlur)" d="M17.0 85.0 L17.0 125.0 L143.0 125.0 L143.0 85.0 z"></path><path stroke="#969696" fill="#969696" filter="url(#shadowBlur)" d="M17.0 25.0 L17.0 65.0 L143.0 65.0 L143.0 25.0 z"></path><path stroke="#000000" stroke-width="0.7" stroke-linecap="round" stroke-linejoin="round" fill="#999988" d="M248.0 85.0 C282.79395 85.0 311.0 93.95431 311.0 105.0 C311.0 116.04569 282.79395 125.0 248.0 125.0 C213.20605 125.0 185.0 116.04569 185.0 105.0 C185.0 93.95431 213.20605 85.0 248.0 85.0 z"></path><path stroke="#000000" stroke-width="0.7" stroke-linecap="round" stroke-linejoin="round" fill="#006688" d="M248.0 25.0 C282.79395 25.0 311.0 33.954308 311.0 45.0 C311.0 56.045692 282.79395 65.0 248.0 65.0 C213.20605 65.0 185.0 56.045692 185.0 45.0 C185.0 33.954308 213.20605 25.0 248.0 25.0 z"></path><path stroke="#000000" stroke-width="0.7" stroke-linecap="round" stroke-linejoin="round" fill="#8899aa" d="M17.0 85.0 L17.0 125.0 L143.0 125.0 L143.0 85.0 z"></path><path stroke="#000000" stroke-width="0.7" stroke-linecap="round" stroke-linejoin="round" fill="#bb6644" d="M17.0 25.0 L17.0 65.0 L143.0 65.0 L143.0 25.0 z"></path><path stroke="none" stroke-width="0.7" stroke-linecap="round" stroke-linejoin="round" fill="#000000" d="M80.0 130.0 L77.0 140.0 L84.0 140.0 z"></path><path stroke="none" stroke-width="0.7" stroke-linecap="round" stroke-linejoin="round" fill="#000000" d="M248.0 130.0 L245.0 140.0 L252.0 140.0 z"></path><path stroke="#000000" stroke-width="0.7" stroke-linecap="round" stroke-linejoin="round" fill="none" d="M80.0 135.0 L80.0 165.0 "></path><path stroke="#000000" stroke-width="0.7" stroke-linecap="round" stroke-linejoin="round" fill="none" d="M248.0 135.0 L248.0 165.0 "></path><text x="205" y="109" font-family="sans-serif" font-size="11" stroke="none" fill="#ffffff"><![CDATA[Product catalog]]></text><text x="37" y="109" font-family="sans-serif" font-size="11" stroke="none" fill="#ffffff"><![CDATA[Product catalog]]></text><text x="212" y="49" font-family="sans-serif" font-size="10" stroke="none" fill="#ffffff"><![CDATA[Order manager]]></text><text x="66" y="188" font-family="sans-serif" font-size="9" stroke="none" fill="#000000"><![CDATA[Team A]]></text><text x="231" y="189" font-family="sans-serif" font-size="10" stroke="none" fill="#000000"><![CDATA[Team B]]></text><text x="44" y="49" font-family="sans-serif" font-size="10" stroke="none" fill="#ffffff"><![CDATA[Order manager]]></text></g></svg>