<?xml version="1.0" encoding="UTF-8"?><svg xmlns="http://www.w3.org/2000/svg" width="392" height="190" version="1.0" shape-rendering="geometricPrecision"><defs><style type="text/css">@font-face {
  font-family: sans-serif;
}</style><filter id="shadowBlur" x="0" y="0" width="200%" height="200%"><feOffset in="SourceGraphic" dx="2.10021" dy="2.10021" result="offOut"></feOffset><feGaussianBlur in="offOut" stdDeviation="3"></feGaussianBlur></filter></defs><g stroke-width="1" stroke-linecap="square" stroke-linejoin="round"><rect x="0" y="0" width="392" height="190" style="fill: #ffffff"></rect><path stroke="#969696" fill="#969696" filter="url(#shadowBlur)" d="M45.0 85.0 L45.0 105.0 L164.0 105.0 L164.0 55.0 L129.0 55.0 L129.0 25.0 L45.0 25.0 L45.0 55.0 L94.0 55.0 L94.0 85.0 z"></path><path stroke="#969696" fill="#969696" filter="url(#shadowBlur)" d="M234.0 55.0 L234.0 25.0 L318.0 25.0 L318.0 45.0 L353.0 45.0 L353.0 75.0 L318.0 75.0 L318.0 105.0 L234.0 105.0 L234.0 85.0 L276.0 85.0 L276.0 55.0 z"></path><path stroke="#969696" fill="#969696" filter="url(#shadowBlur)" d="M45.0 85.0 L94.0 85.0 L94.0 55.0 L45.0 55.0 z"></path><path stroke="#969696" fill="#969696" filter="url(#shadowBlur)" d="M234.0 55.0 L234.0 85.0 L276.0 85.0 L276.0 55.0 z"></path><path stroke="#969696" fill="#969696" filter="url(#shadowBlur)" d="M353.0 75.0 L353.0 105.0 L318.0 105.0 L318.0 75.0 z"></path><path stroke="#969696" fill="#969696" filter="url(#shadowBlur)" d="M164.0 25.0 L164.0 55.0 L129.0 55.0 L129.0 25.0 z"></path><path stroke="#969696" fill="#969696" filter="url(#shadowBlur)" d="M353.0 25.0 L353.0 45.0 L318.0 45.0 L318.0 25.0 z"></path><path stroke="#000000" stroke-width="0.7" stroke-linecap="round" stroke-linejoin="round" fill="#eeeeee" d="M45.0 85.0 L45.0 105.0 L164.0 105.0 L164.0 55.0 L129.0 55.0 L129.0 25.0 L45.0 25.0 L45.0 55.0 L94.0 55.0 L94.0 85.0 z"></path><path stroke="#000000" stroke-width="0.7" stroke-linecap="round" stroke-linejoin="round" fill="#eeeeee" d="M234.0 55.0 L234.0 25.0 L318.0 25.0 L318.0 45.0 L353.0 45.0 L353.0 75.0 L318.0 75.0 L318.0 105.0 L234.0 105.0 L234.0 85.0 L276.0 85.0 L276.0 55.0 z"></path><path stroke="#000000" stroke-width="0.7" stroke-linecap="round" stroke-linejoin="round" fill="none" d="M108.0 125.0 L185.0 125.0 L185.0 45.0 L171.0 45.0 "></path><path stroke="#000000" stroke-width="0.7" stroke-linecap="round" stroke-linejoin="round" fill="none" d="M227.0 75.0 L206.0 75.0 L206.0 125.0 L297.0 125.0 "></path><path stroke="#000000" stroke-width="0.7" stroke-linecap="round" stroke-linejoin="round" fill="none" d="M38.0 75.0 L17.0 75.0 L17.0 125.0 L108.0 125.0 "></path><path stroke="#000000" stroke-width="0.7" stroke-linecap="round" stroke-linejoin="round" fill="#006688" d="M45.0 85.0 L94.0 85.0 L94.0 55.0 L45.0 55.0 z"></path><path stroke="#000000" stroke-width="0.7" stroke-linecap="round" stroke-linejoin="round" fill="#bb6644" d="M234.0 55.0 L234.0 85.0 L276.0 85.0 L276.0 55.0 z"></path><path stroke="#000000" stroke-width="0.7" stroke-linecap="round" stroke-linejoin="round" fill="none" d="M297.0 125.0 L374.0 125.0 L374.0 95.0 "></path><path stroke="#000000" stroke-width="0.7" stroke-linecap="round" stroke-linejoin="round" fill="#bb6644" d="M353.0 75.0 L353.0 105.0 L318.0 105.0 L318.0 75.0 z"></path><path stroke="#000000" stroke-width="0.7" stroke-linecap="round" stroke-linejoin="round" fill="#006688" d="M164.0 25.0 L164.0 55.0 L129.0 55.0 L129.0 25.0 z"></path><path stroke="#000000" stroke-width="0.7" stroke-linecap="round" stroke-linejoin="round" fill="#bb6644" d="M353.0 25.0 L353.0 45.0 L318.0 45.0 L318.0 25.0 z"></path><path stroke="#000000" stroke-width="0.7" stroke-linecap="round" stroke-linejoin="round" fill="none" d="M374.0 95.0 L374.0 35.0 L360.0 35.0 "></path><path stroke="none" stroke-width="0.7" stroke-linecap="round" stroke-linejoin="round" fill="#000000" d="M364.0 30.0 L357.0 35.0 L364.0 40.0 z"></path><path stroke="none" stroke-width="0.7" stroke-linecap="round" stroke-linejoin="round" fill="#000000" d="M175.0 40.0 L168.0 45.0 L175.0 50.0 z"></path><path stroke="none" stroke-width="0.7" stroke-linecap="round" stroke-linejoin="round" fill="#000000" d="M35.0 70.0 L42.0 75.0 L35.0 80.0 z"></path><path stroke="none" stroke-width="0.7" stroke-linecap="round" stroke-linejoin="round" fill="#000000" d="M224.0 70.0 L231.0 75.0 L224.0 80.0 z"></path><path stroke="none" stroke-width="0.7" stroke-linecap="round" stroke-linejoin="round" fill="#000000" d="M364.0 90.0 L357.0 95.0 L364.0 100.0 z"></path><path stroke="#000000" stroke-width="0.7" stroke-linecap="round" stroke-linejoin="round" fill="none" d="M374.0 95.0 L360.0 95.0 "></path><path stroke="#000000" stroke-width="0.7" stroke-linecap="round" stroke-linejoin="round" fill="none" d="M297.0 125.0 L297.0 145.0 "></path><path stroke="#000000" stroke-width="0.7" stroke-linecap="round" stroke-linejoin="round" fill="none" d="M108.0 125.0 L108.0 145.0 "></path><path stroke="#000000" stroke-width="0.7" stroke-linecap="round" stroke-linejoin="round" fill="#ffffff" d="M376.45 95.0 L376.36652 95.63411 L376.12177 96.225 L375.73242 96.732414 L375.225 97.121765 L374.6341 97.366516 L374.0 97.45 L373.3659 97.366516 L372.775 97.121765 L372.26758 96.732414 L371.87823 96.225 L371.63348 95.63411 L371.55 95.0 L371.63348 94.36589 L371.87823 93.775 L372.26758 93.267586 L372.775 92.878235 L373.3659 92.633484 L374.0 92.55 L374.6341 92.633484 L375.225 92.878235 L375.73242 93.267586 L376.12177 93.775 L376.36652 94.36589 L376.45 95.0 z"></path><text x="87" y="168" font-family="sans-serif" font-size="9" stroke="none" fill="#000000"><![CDATA[Team A]]></text><text x="273" y="169" font-family="sans-serif" font-size="10" stroke="none" fill="#000000"><![CDATA[Team B]]></text></g></svg>