<?xml version="1.0" encoding="UTF-8"?><svg xmlns="http://www.w3.org/2000/svg" width="330" height="266" version="1.0" shape-rendering="geometricPrecision"><defs><style type="text/css">@font-face {
  font-family: sans-serif;
}</style><filter id="shadowBlur" x="0" y="0" width="200%" height="200%"><feOffset in="SourceGraphic" dx="3.0003002" dy="3.0003002" result="offOut"></feOffset><feGaussianBlur in="offOut" stdDeviation="3"></feGaussianBlur></filter></defs><g stroke-width="1" stroke-linecap="square" stroke-linejoin="round"><rect x="0" y="0" width="330" height="266" style="fill: #ffffff"></rect><path stroke="#969696" fill="#969696" filter="url(#shadowBlur)" d="M305.0 147.0 L305.0 175.0 L245.0 175.0 L245.0 147.0 z"></path><path stroke="#969696" fill="#969696" filter="url(#shadowBlur)" d="M195.0 147.0 L195.0 175.0 L135.0 175.0 L135.0 147.0 z"></path><path stroke="#969696" fill="#969696" filter="url(#shadowBlur)" d="M85.0 147.0 L85.0 175.0 L25.0 175.0 L25.0 147.0 z"></path><path stroke="#969696" fill="#969696" filter="url(#shadowBlur)" d="M305.0 35.0 L305.0 63.0 L245.0 63.0 L245.0 35.0 z"></path><path stroke="#969696" fill="#969696" filter="url(#shadowBlur)" d="M195.0 35.0 L195.0 63.0 L135.0 63.0 L135.0 35.0 z"></path><path stroke="#969696" fill="#969696" filter="url(#shadowBlur)" d="M25.0 35.0 L25.0 63.0 L85.0 63.0 L85.0 35.0 z"></path><path stroke="#000000" stroke-width="1.0" stroke-linecap="round" stroke-linejoin="round" fill="#88aabb" d="M305.0 147.0 L305.0 175.0 L245.0 175.0 L245.0 147.0 z"></path><path stroke="#000000" stroke-width="1.0" stroke-linecap="round" stroke-linejoin="round" fill="#bbbbbb" d="M195.0 147.0 L195.0 175.0 L135.0 175.0 L135.0 147.0 z"></path><path stroke="#000000" stroke-width="1.0" stroke-linecap="round" stroke-linejoin="round" fill="#663344" d="M85.0 147.0 L85.0 175.0 L25.0 175.0 L25.0 147.0 z"></path><path stroke="#000000" stroke-width="1.0" stroke-linecap="round" stroke-linejoin="round" fill="#999988" d="M305.0 35.0 L305.0 63.0 L245.0 63.0 L245.0 35.0 z"></path><path stroke="#000000" stroke-width="1.0" stroke-linecap="round" stroke-linejoin="round" fill="#bb6644" d="M195.0 35.0 L195.0 63.0 L135.0 63.0 L135.0 35.0 z"></path><path stroke="#000000" stroke-width="1.0" stroke-linecap="round" stroke-linejoin="round" fill="#006688" d="M25.0 35.0 L25.0 63.0 L85.0 63.0 L85.0 35.0 z"></path><path stroke="none" stroke-width="1.0" stroke-linecap="round" stroke-linejoin="round" fill="#000000" d="M55.0 70.0 L50.0 84.0 L60.0 84.0 z"></path><path stroke="none" stroke-width="1.0" stroke-linecap="round" stroke-linejoin="round" fill="#000000" d="M165.0 70.0 L160.0 84.0 L170.0 84.0 z"></path><path stroke="none" stroke-width="1.0" stroke-linecap="round" stroke-linejoin="round" fill="#000000" d="M275.0 70.0 L270.0 84.0 L280.0 84.0 z"></path><path stroke="none" stroke-width="1.0" stroke-linecap="round" stroke-linejoin="round" fill="#000000" d="M55.0 182.0 L50.0 196.0 L60.0 196.0 z"></path><path stroke="none" stroke-width="1.0" stroke-linecap="round" stroke-linejoin="round" fill="#000000" d="M165.0 182.0 L160.0 196.0 L170.0 196.0 z"></path><path stroke="none" stroke-width="1.0" stroke-linecap="round" stroke-linejoin="round" fill="#000000" d="M275.0 182.0 L270.0 196.0 L280.0 196.0 z"></path><path stroke="#000000" stroke-width="1.0" stroke-linecap="round" stroke-linejoin="round" fill="none" d="M275.0 77.0 L275.0 97.0 "></path><path stroke="#000000" stroke-width="1.0" stroke-linecap="round" stroke-linejoin="round" fill="none" d="M165.0 77.0 L165.0 97.0 "></path><path stroke="#000000" stroke-width="1.0" stroke-linecap="round" stroke-linejoin="round" fill="none" d="M55.0 77.0 L55.0 97.0 "></path><path stroke="#000000" stroke-width="1.0" stroke-linecap="round" stroke-linejoin="round" fill="none" d="M275.0 189.0 L275.0 209.0 "></path><path stroke="#000000" stroke-width="1.0" stroke-linecap="round" stroke-linejoin="round" fill="none" d="M165.0 189.0 L165.0 209.0 "></path><path stroke="#000000" stroke-width="1.0" stroke-linecap="round" stroke-linejoin="round" fill="none" d="M55.0 189.0 L55.0 209.0 "></path><text x="140" y="236" font-family="sans-serif" font-size="13" stroke="none" fill="#000000"><![CDATA[Team]]></text><text x="30" y="124" font-family="sans-serif" font-size="13" stroke="none" fill="#000000"><![CDATA[Team]]></text><text x="30" y="236" font-family="sans-serif" font-size="13" stroke="none" fill="#000000"><![CDATA[Team]]></text><text x="250" y="124" font-family="sans-serif" font-size="13" stroke="none" fill="#000000"><![CDATA[Team]]></text><text x="250" y="236" font-family="sans-serif" font-size="13" stroke="none" fill="#000000"><![CDATA[Team]]></text><text x="140" y="124" font-family="sans-serif" font-size="13" stroke="none" fill="#000000"><![CDATA[Team]]></text></g></svg>