<?xml version="1.0" encoding="UTF-8"?><svg xmlns="http://www.w3.org/2000/svg" width="390" height="252" version="1.0" shape-rendering="geometricPrecision"><defs><style type="text/css">@font-face {
  font-family: sans-serif;
}</style><filter id="shadowBlur" x="0" y="0" width="200%" height="200%"><feOffset in="SourceGraphic" dx="3.0003002" dy="3.0003002" result="offOut"></feOffset><feGaussianBlur in="offOut" stdDeviation="3"></feGaussianBlur></filter></defs><g stroke-width="1" stroke-linecap="square" stroke-linejoin="round"><rect x="0" y="0" width="390" height="252" style="fill: #ffffff"></rect><path stroke="#969696" fill="#969696" filter="url(#shadowBlur)" d="M365.0 35.0 L365.0 217.0 L25.0 217.0 L25.0 35.0 z"></path><path stroke="#969696" fill="#969696" filter="url(#shadowBlur)" d="M55.0 119.0 L55.0 189.0 L195.0 189.0 L195.0 119.0 z"></path><path stroke="#969696" fill="#969696" filter="url(#shadowBlur)" d="M335.0 49.0 L335.0 105.0 L235.0 105.0 L235.0 49.0 z"></path><path stroke="#969696" fill="#969696" filter="url(#shadowBlur)" d="M320.0 147.0 Q325.0 147.0 325.0 154.0 L325.0 182.0 Q325.0 189.0 320.0 189.0 L260.0 189.0 L260.0 189.0 Q255.0 189.0 255.0 182.0 L255.0 154.0 L255.0 154.0 Q255.0 147.0 260.0 147.0 L320.0 147.0 z"></path><path stroke="#000000" stroke-width="1.0" stroke-linecap="round" stroke-linejoin="round" fill="#dddddd" d="M365.0 35.0 L365.0 217.0 L25.0 217.0 L25.0 35.0 z"></path><path stroke="#000000" stroke-width="1.0" stroke-linecap="round" stroke-linejoin="round" fill="#8899aa" d="M55.0 119.0 L55.0 189.0 L195.0 189.0 L195.0 119.0 z"></path><path stroke="#000000" stroke-width="1.0" stroke-linecap="round" stroke-linejoin="round" fill="#999988" d="M335.0 49.0 L335.0 105.0 L235.0 105.0 L235.0 49.0 z"></path><path stroke="#000000" stroke-width="1.0" stroke-linecap="round" stroke-linejoin="round" fill="#006688" d="M320.0 147.0 Q325.0 147.0 325.0 154.0 L325.0 182.0 Q325.0 189.0 320.0 189.0 L260.0 189.0 L260.0 189.0 Q255.0 189.0 255.0 182.0 L255.0 154.0 L255.0 154.0 Q255.0 147.0 260.0 147.0 L320.0 147.0 z"></path><text x="282" y="82" font-family="sans-serif" font-size="15" stroke="none" fill="#ffffff"><![CDATA[C ]]></text><text x="282" y="180" font-family="sans-serif" font-size="15" stroke="none" fill="#ffffff"><![CDATA[B ]]></text><text x="63" y="82" font-family="sans-serif" font-size="15" stroke="none" fill="#000000"><![CDATA[Reference]]></text><text x="95" y="96" font-family="sans-serif" font-size="15" stroke="none" fill="#000000"><![CDATA[features]]></text><text x="122" y="166" font-family="sans-serif" font-size="15" stroke="none" fill="#ffffff"><![CDATA[A ]]></text></g></svg>