<?xml version="1.0" encoding="UTF-8"?><svg xmlns="http://www.w3.org/2000/svg" width="440" height="196" version="1.0" shape-rendering="geometricPrecision"><defs><style type="text/css">@font-face {
  font-family: sans-serif;
}</style><filter id="shadowBlur" x="0" y="0" width="200%" height="200%"><feOffset in="SourceGraphic" dx="3.0003002" dy="3.0003002" result="offOut"></feOffset><feGaussianBlur in="offOut" stdDeviation="3"></feGaussianBlur></filter></defs><g stroke-width="1" stroke-linecap="square" stroke-linejoin="round"><rect x="0" y="0" width="440" height="196" style="fill: #ffffff"></rect><path stroke="#969696" fill="#969696" filter="url(#shadowBlur)" d="M285.0 77.0 L285.0 133.0 L175.0 133.0 L175.0 77.0 z"></path><path stroke="#969696" fill="#969696" filter="url(#shadowBlur)" d="M285.0 35.0 L285.0 77.0 L175.0 77.0 L175.0 35.0 z"></path><path stroke="#969696" fill="#969696" filter="url(#shadowBlur)" d="M145.0 77.0 L145.0 35.0 L35.0 35.0 L35.0 77.0 z"></path><path stroke="#969696" fill="#969696" filter="url(#shadowBlur)" d="M315.0 77.0 L315.0 35.0 L415.0 35.0 L415.0 77.0 z"></path><path stroke="#969696" fill="#969696" filter="url(#shadowBlur)" d="M285.0 133.0 L285.0 161.0 L175.0 161.0 L175.0 133.0 z"></path><path stroke="#969696" fill="#969696" filter="url(#shadowBlur)" d="M315.0 77.0 L315.0 105.0 L415.0 105.0 L415.0 77.0 z"></path><path stroke="#000000" stroke-width="1.0" stroke-linecap="round" stroke-linejoin="round" fill="#663344" d="M285.0 77.0 L285.0 133.0 L175.0 133.0 L175.0 77.0 z"></path><path stroke="#000000" stroke-width="1.0" stroke-linecap="round" stroke-linejoin="round" fill="#dddddd" d="M285.0 35.0 L285.0 77.0 L175.0 77.0 L175.0 35.0 z"></path><path stroke="#000000" stroke-width="1.0" stroke-linecap="round" stroke-linejoin="round" fill="#dddddd" d="M145.0 77.0 L145.0 35.0 L35.0 35.0 L35.0 77.0 z"></path><path stroke="#000000" stroke-width="1.0" stroke-linecap="round" stroke-linejoin="round" fill="#dddddd" d="M315.0 77.0 L315.0 35.0 L415.0 35.0 L415.0 77.0 z"></path><path stroke="#000000" stroke-width="1.0" stroke-linecap="round" stroke-linejoin="round" fill="#885555" d="M285.0 133.0 L285.0 161.0 L175.0 161.0 L175.0 133.0 z"></path><path stroke="#000000" stroke-width="1.0" stroke-dasharray="5.000000,5.000000" stroke-miterlimit="0" stroke-linecap="butt" stroke-linejoin="round" fill="white" d="M145.0 77.0 L145.0 105.0 L35.0 105.0 L35.0 77.0 z"></path><path stroke="#000000" stroke-width="1.0" stroke-linecap="round" stroke-linejoin="round" fill="#006688" d="M315.0 77.0 L315.0 105.0 L415.0 105.0 L415.0 77.0 z"></path><path stroke="none" stroke-width="1.0" stroke-linecap="round" stroke-linejoin="round" fill="#000000" d="M160.0 140.0 L170.0 147.0 L160.0 154.0 z"></path><path stroke="#000000" stroke-width="1.0" stroke-linecap="round" stroke-linejoin="round" fill="none" d="M165.0 147.0 L115.0 147.0 "></path><text x="323" y="54" font-family="sans-serif" font-size="15" stroke="none" fill="#000000"><![CDATA[Reference]]></text><text x="45" y="96" font-family="sans-serif" font-size="15" stroke="none" fill="#000000"><![CDATA[Default]]></text><text x="20" y="152" font-family="sans-serif" font-size="15" stroke="none" fill="#000000"><![CDATA[Reusable]]></text><text x="20" y="166" font-family="sans-serif" font-size="15" stroke="none" fill="#000000"><![CDATA[part]]></text><text x="183" y="54" font-family="sans-serif" font-size="15" stroke="none" fill="#000000"><![CDATA[Reference]]></text><text x="251" y="152" font-family="sans-serif" font-size="15" stroke="none" fill="#ffffff"><![CDATA[X ]]></text><text x="43" y="54" font-family="sans-serif" font-size="15" stroke="none" fill="#000000"><![CDATA[Reference]]></text><text x="182" y="96" font-family="sans-serif" font-size="15" stroke="none" fill="#ffffff"><![CDATA[A ]]></text><text x="322" y="96" font-family="sans-serif" font-size="15" stroke="none" fill="#ffffff"><![CDATA[B ]]></text></g></svg>