<?xml version="1.0" encoding="UTF-8"?><svg xmlns="http://www.w3.org/2000/svg" width="630" height="238" version="1.0" shape-rendering="geometricPrecision"><defs><style type="text/css">@font-face {
  font-family: sans-serif;
}</style><filter id="shadowBlur" x="0" y="0" width="200%" height="200%"><feOffset in="SourceGraphic" dx="3.0003002" dy="3.0003002" result="offOut"></feOffset><feGaussianBlur in="offOut" stdDeviation="3"></feGaussianBlur></filter></defs><g stroke-width="1" stroke-linecap="square" stroke-linejoin="round"><rect x="0" y="0" width="630" height="238" style="fill: #ffffff"></rect><path stroke="#969696" fill="#969696" filter="url(#shadowBlur)" d="M535.0 203.0 L535.0 175.0 L570.0 175.0 Q575.0 175.0 575.0 168.0 L575.0 140.0 L575.0 140.0 Q575.0 133.0 570.0 133.0 L535.0 133.0 L535.0 133.0 L535.0 105.0 L570.0 105.0 Q575.0 105.0 575.0 98.0 L575.0 70.0 L575.0 70.0 Q575.0 63.0 570.0 63.0 L535.0 63.0 L535.0 63.0 L535.0 35.0 L425.0 35.0 L425.0 203.0 z"></path><path stroke="#969696" fill="#969696" filter="url(#shadowBlur)" d="M375.0 98.0 Q375.0 105.0 370.0 105.0 L335.0 105.0 L335.0 133.0 L370.0 133.0 Q375.0 133.0 375.0 140.0 L375.0 168.0 L375.0 168.0 Q375.0 175.0 370.0 175.0 L335.0 175.0 L335.0 175.0 L335.0 203.0 L225.0 203.0 L225.0 35.0 L335.0 35.0 L335.0 63.0 L370.0 63.0 Q375.0 63.0 375.0 70.0 L375.0 98.0 z"></path><path stroke="#969696" fill="#969696" filter="url(#shadowBlur)" d="M135.0 203.0 L135.0 175.0 L170.0 175.0 Q175.0 175.0 175.0 168.0 L175.0 140.0 L175.0 140.0 Q175.0 133.0 170.0 133.0 L135.0 133.0 L135.0 133.0 L135.0 105.0 L170.0 105.0 Q175.0 105.0 175.0 98.0 L175.0 70.0 L175.0 70.0 Q175.0 63.0 170.0 63.0 L135.0 63.0 L135.0 63.0 L135.0 35.0 L25.0 35.0 L25.0 203.0 z"></path><path stroke="#969696" fill="#969696" filter="url(#shadowBlur)" d="M605.0 35.0 L605.0 203.0 L535.0 203.0 L535.0 175.0 L570.0 175.0 Q575.0 175.0 575.0 168.0 L575.0 140.0 L575.0 140.0 Q575.0 133.0 570.0 133.0 L535.0 133.0 L535.0 133.0 L535.0 105.0 L570.0 105.0 Q575.0 105.0 575.0 98.0 L575.0 70.0 L575.0 70.0 Q575.0 63.0 570.0 63.0 L535.0 63.0 L535.0 63.0 L535.0 35.0 z"></path><path stroke="#969696" fill="#969696" filter="url(#shadowBlur)" d="M375.0 98.0 Q375.0 105.0 370.0 105.0 L335.0 105.0 L335.0 133.0 L370.0 133.0 Q375.0 133.0 375.0 140.0 L375.0 168.0 L375.0 168.0 Q375.0 175.0 370.0 175.0 L335.0 175.0 L335.0 175.0 L335.0 203.0 L405.0 203.0 L405.0 35.0 L335.0 35.0 L335.0 63.0 L370.0 63.0 Q375.0 63.0 375.0 70.0 L375.0 98.0 z"></path><path stroke="#000000" stroke-width="1.0" stroke-linecap="round" stroke-linejoin="round" fill="#dddddd" d="M535.0 203.0 L535.0 175.0 L570.0 175.0 Q575.0 175.0 575.0 168.0 L575.0 140.0 L575.0 140.0 Q575.0 133.0 570.0 133.0 L535.0 133.0 L535.0 133.0 L535.0 105.0 L570.0 105.0 Q575.0 105.0 575.0 98.0 L575.0 70.0 L575.0 70.0 Q575.0 63.0 570.0 63.0 L535.0 63.0 L535.0 63.0 L535.0 35.0 L425.0 35.0 L425.0 203.0 z"></path><path stroke="#000000" stroke-width="1.0" stroke-linecap="round" stroke-linejoin="round" fill="#dddddd" d="M375.0 98.0 Q375.0 105.0 370.0 105.0 L335.0 105.0 L335.0 133.0 L370.0 133.0 Q375.0 133.0 375.0 140.0 L375.0 168.0 L375.0 168.0 Q375.0 175.0 370.0 175.0 L335.0 175.0 L335.0 175.0 L335.0 203.0 L225.0 203.0 L225.0 35.0 L335.0 35.0 L335.0 63.0 L370.0 63.0 Q375.0 63.0 375.0 70.0 L375.0 98.0 z"></path><path stroke="#000000" stroke-width="1.0" stroke-linecap="round" stroke-linejoin="round" fill="#dddddd" d="M135.0 203.0 L135.0 175.0 L170.0 175.0 Q175.0 175.0 175.0 168.0 L175.0 140.0 L175.0 140.0 Q175.0 133.0 170.0 133.0 L135.0 133.0 L135.0 133.0 L135.0 105.0 L170.0 105.0 Q175.0 105.0 175.0 98.0 L175.0 70.0 L175.0 70.0 Q175.0 63.0 170.0 63.0 L135.0 63.0 L135.0 63.0 L135.0 35.0 L25.0 35.0 L25.0 203.0 z"></path><path stroke="#000000" stroke-width="1.0" stroke-linecap="round" stroke-linejoin="round" fill="#006688" d="M605.0 35.0 L605.0 203.0 L535.0 203.0 L535.0 175.0 L570.0 175.0 Q575.0 175.0 575.0 168.0 L575.0 140.0 L575.0 140.0 Q575.0 133.0 570.0 133.0 L535.0 133.0 L535.0 133.0 L535.0 105.0 L570.0 105.0 Q575.0 105.0 575.0 98.0 L575.0 70.0 L575.0 70.0 Q575.0 63.0 570.0 63.0 L535.0 63.0 L535.0 63.0 L535.0 35.0 z"></path><path stroke="#000000" stroke-width="1.0" stroke-linecap="round" stroke-linejoin="round" fill="#663344" d="M375.0 98.0 Q375.0 105.0 370.0 105.0 L335.0 105.0 L335.0 133.0 L370.0 133.0 Q375.0 133.0 375.0 140.0 L375.0 168.0 L375.0 168.0 Q375.0 175.0 370.0 175.0 L335.0 175.0 L335.0 175.0 L335.0 203.0 L405.0 203.0 L405.0 35.0 L335.0 35.0 L335.0 63.0 L370.0 63.0 Q375.0 63.0 375.0 70.0 L375.0 98.0 z"></path><path stroke="#000000" stroke-width="1.0" stroke-dasharray="5.000000,5.000000" stroke-miterlimit="0" stroke-linecap="butt" stroke-linejoin="round" fill="white" d="M205.0 35.0 L205.0 203.0 L135.0 203.0 L135.0 175.0 L170.0 175.0 Q175.0 175.0 175.0 168.0 L175.0 140.0 L175.0 140.0 Q175.0 133.0 170.0 133.0 L135.0 133.0 L135.0 133.0 L135.0 105.0 L170.0 105.0 Q175.0 105.0 175.0 98.0 L175.0 70.0 L175.0 70.0 Q175.0 63.0 170.0 63.0 L135.0 63.0 L135.0 63.0 L135.0 35.0 z"></path><text x="233" y="54" font-family="sans-serif" font-size="15" stroke="none" fill="#000000"><![CDATA[Reference]]></text><text x="540" y="54" font-family="sans-serif" font-size="14" stroke="none" fill="#ffffff"><![CDATA[Custom]]></text><text x="433" y="54" font-family="sans-serif" font-size="15" stroke="none" fill="#000000"><![CDATA[Reference]]></text><text x="140" y="54" font-family="sans-serif" font-size="14" stroke="none" fill="#000000"><![CDATA[Custom]]></text><text x="542" y="124" font-family="sans-serif" font-size="15" stroke="none" fill="#ffffff"><![CDATA[B ]]></text><text x="145" y="124" font-family="sans-serif" font-size="15" stroke="none" fill="#000000"><![CDATA[Default]]></text><text x="33" y="54" font-family="sans-serif" font-size="15" stroke="none" fill="#000000"><![CDATA[Reference]]></text><text x="340" y="54" font-family="sans-serif" font-size="14" stroke="none" fill="#ffffff"><![CDATA[Custom]]></text><text x="342" y="124" font-family="sans-serif" font-size="15" stroke="none" fill="#ffffff"><![CDATA[A ]]></text></g></svg>