<?xml version="1.0" encoding="UTF-8"?><svg xmlns="http://www.w3.org/2000/svg" width="360" height="252" version="1.0" shape-rendering="geometricPrecision"><defs><style type="text/css">@font-face {
  font-family: sans-serif;
}</style><filter id="shadowBlur" x="0" y="0" width="200%" height="200%"><feOffset in="SourceGraphic" dx="3.0003002" dy="3.0003002" result="offOut"></feOffset><feGaussianBlur in="offOut" stdDeviation="3"></feGaussianBlur></filter></defs><g stroke-width="1" stroke-linecap="square" stroke-linejoin="round"><rect x="0" y="0" width="360" height="252" style="fill: #ffffff"></rect><path stroke="#969696" fill="#969696" filter="url(#shadowBlur)" d="M105.0 133.0 L105.0 91.0 L25.0 91.0 L25.0 35.0 L135.0 35.0 L135.0 105.0 L235.0 105.0 L235.0 35.0 L295.0 35.0 L295.0 91.0 L335.0 91.0 L335.0 133.0 L245.0 133.0 L245.0 189.0 L335.0 189.0 L335.0 217.0 L225.0 217.0 L225.0 133.0 L175.0 133.0 L175.0 217.0 L155.0 217.0 L155.0 161.0 L55.0 161.0 L55.0 217.0 L25.0 217.0 L25.0 133.0 z"></path><path stroke="#969696" fill="#969696" filter="url(#shadowBlur)" d="M235.0 35.0 L235.0 105.0 L135.0 105.0 L135.0 35.0 z"></path><path stroke="#969696" fill="#969696" filter="url(#shadowBlur)" d="M155.0 161.0 L155.0 217.0 L55.0 217.0 L55.0 161.0 z"></path><path stroke="#969696" fill="#969696" filter="url(#shadowBlur)" d="M335.0 133.0 L335.0 189.0 L245.0 189.0 L245.0 133.0 z"></path><path stroke="#969696" fill="#969696" filter="url(#shadowBlur)" d="M225.0 133.0 L225.0 217.0 L175.0 217.0 L175.0 133.0 z"></path><path stroke="#969696" fill="#969696" filter="url(#shadowBlur)" d="M25.0 91.0 L25.0 133.0 L105.0 133.0 L105.0 91.0 z"></path><path stroke="#969696" fill="#969696" filter="url(#shadowBlur)" d="M335.0 35.0 L335.0 91.0 L295.0 91.0 L295.0 35.0 z"></path><path stroke="#000000" stroke-width="1.0" stroke-linecap="round" stroke-linejoin="round" fill="#dddddd" d="M105.0 133.0 L105.0 91.0 L25.0 91.0 L25.0 35.0 L135.0 35.0 L135.0 105.0 L235.0 105.0 L235.0 35.0 L295.0 35.0 L295.0 91.0 L335.0 91.0 L335.0 133.0 L245.0 133.0 L245.0 189.0 L335.0 189.0 L335.0 217.0 L225.0 217.0 L225.0 133.0 L175.0 133.0 L175.0 217.0 L155.0 217.0 L155.0 161.0 L55.0 161.0 L55.0 217.0 L25.0 217.0 L25.0 133.0 z"></path><path stroke="#000000" stroke-width="1.0" stroke-linecap="round" stroke-linejoin="round" fill="white" d="M235.0 35.0 L235.0 105.0 L135.0 105.0 L135.0 35.0 z"></path><path stroke="#000000" stroke-width="1.0" stroke-linecap="round" stroke-linejoin="round" fill="white" d="M155.0 161.0 L155.0 217.0 L55.0 217.0 L55.0 161.0 z"></path><path stroke="#000000" stroke-width="1.0" stroke-linecap="round" stroke-linejoin="round" fill="white" d="M335.0 133.0 L335.0 189.0 L245.0 189.0 L245.0 133.0 z"></path><path stroke="#000000" stroke-width="1.0" stroke-linecap="round" stroke-linejoin="round" fill="white" d="M225.0 133.0 L225.0 217.0 L175.0 217.0 L175.0 133.0 z"></path><path stroke="#000000" stroke-width="1.0" stroke-linecap="round" stroke-linejoin="round" fill="white" d="M25.0 91.0 L25.0 133.0 L105.0 133.0 L105.0 91.0 z"></path><path stroke="#000000" stroke-width="1.0" stroke-linecap="round" stroke-linejoin="round" fill="white" d="M335.0 35.0 L335.0 91.0 L295.0 91.0 L295.0 35.0 z"></path><text x="63" y="110" font-family="sans-serif" font-size="15" stroke="none" fill="#000000"><![CDATA[? ]]></text><text x="103" y="194" font-family="sans-serif" font-size="15" stroke="none" fill="#000000"><![CDATA[? ]]></text><text x="313" y="68" font-family="sans-serif" font-size="15" stroke="none" fill="#000000"><![CDATA[? ]]></text><text x="283" y="166" font-family="sans-serif" font-size="15" stroke="none" fill="#000000"><![CDATA[? ]]></text><text x="153" y="124" font-family="sans-serif" font-size="15" stroke="none" fill="#000000"><![CDATA[Reference]]></text><text x="183" y="68" font-family="sans-serif" font-size="15" stroke="none" fill="#000000"><![CDATA[? ]]></text><text x="193" y="180" font-family="sans-serif" font-size="15" stroke="none" fill="#000000"><![CDATA[? ]]></text></g></svg>