<?xml version="1.0" encoding="UTF-8"?><svg xmlns="http://www.w3.org/2000/svg" width="424" height="121" version="1.0" shape-rendering="geometricPrecision"><defs><style type="text/css">@font-face {
  font-family: sans-serif;
}</style><filter id="shadowBlur" x="0" y="0" width="200%" height="200%"><feOffset in="SourceGraphic" dx="2.4002402" dy="2.4002402" result="offOut"></feOffset><feGaussianBlur in="offOut" stdDeviation="3"></feGaussianBlur></filter></defs><g stroke-width="1" stroke-linecap="square" stroke-linejoin="round"><rect x="0" y="0" width="424" height="121" style="fill: #ffffff"></rect><path stroke="#969696" fill="#969696" filter="url(#shadowBlur)" d="M284.0 27.0 C297.25482 27.0 308.0 41.774605 308.0 60.0 C308.0 78.225395 297.25482 93.0 284.0 93.0 C270.74518 93.0 260.0 78.225395 260.0 60.0 C260.0 41.774605 270.74518 27.0 284.0 27.0 z"></path><path stroke="#969696" fill="#969696" filter="url(#shadowBlur)" d="M156.0 38.0 L156.0 60.0 L132.0 60.0 L132.0 82.0 L108.0 82.0 L108.0 60.0 L84.0 60.0 L84.0 38.0 z"></path><path stroke="#969696" fill="#969696" filter="url(#shadowBlur)" d="M220.0 38.0 L220.0 60.0 L236.0 60.0 L236.0 82.0 L180.0 82.0 L180.0 38.0 z"></path><path stroke="#969696" fill="#969696" filter="url(#shadowBlur)" d="M20.0 38.0 L20.0 82.0 L60.0 82.0 L60.0 38.0 z"></path><path stroke="#969696" fill="#969696" filter="url(#shadowBlur)" d="M404.0 49.0 L404.0 71.0 L332.0 71.0 L332.0 49.0 z"></path><path stroke="#000000" stroke-width="0.8" stroke-linecap="round" stroke-linejoin="round" fill="#006688" d="M284.0 27.0 C297.25482 27.0 308.0 41.774605 308.0 60.0 C308.0 78.225395 297.25482 93.0 284.0 93.0 C270.74518 93.0 260.0 78.225395 260.0 60.0 C260.0 41.774605 270.74518 27.0 284.0 27.0 z"></path><path stroke="#000000" stroke-width="0.8" stroke-linecap="round" stroke-linejoin="round" fill="#8899aa" d="M156.0 38.0 L156.0 60.0 L132.0 60.0 L132.0 82.0 L108.0 82.0 L108.0 60.0 L84.0 60.0 L84.0 38.0 z"></path><path stroke="#000000" stroke-width="0.8" stroke-linecap="round" stroke-linejoin="round" fill="#663344" d="M220.0 38.0 L220.0 60.0 L236.0 60.0 L236.0 82.0 L180.0 82.0 L180.0 38.0 z"></path><path stroke="#000000" stroke-width="0.8" stroke-linecap="round" stroke-linejoin="round" fill="#995544" d="M20.0 38.0 L20.0 82.0 L60.0 82.0 L60.0 38.0 z"></path><path stroke="#000000" stroke-width="0.8" stroke-linecap="round" stroke-linejoin="round" fill="#999988" d="M404.0 49.0 L404.0 71.0 L332.0 71.0 L332.0 49.0 z"></path></g></svg>