<?xml version="1.0" encoding="UTF-8"?><svg xmlns="http://www.w3.org/2000/svg" width="440" height="182" version="1.0" shape-rendering="geometricPrecision"><defs><style type="text/css">@font-face {
  font-family: sans-serif;
}</style><filter id="shadowBlur" x="0" y="0" width="200%" height="200%"><feOffset in="SourceGraphic" dx="3.0003002" dy="3.0003002" result="offOut"></feOffset><feGaussianBlur in="offOut" stdDeviation="3"></feGaussianBlur></filter></defs><g stroke-width="1" stroke-linecap="square" stroke-linejoin="round"><rect x="0" y="0" width="440" height="182" style="fill: #ffffff"></rect><path stroke="#969696" fill="#969696" filter="url(#shadowBlur)" d="M305.0 77.0 L305.0 35.0 L415.0 35.0 L415.0 77.0 z"></path><path stroke="#969696" fill="#969696" filter="url(#shadowBlur)" d="M275.0 35.0 L275.0 77.0 L165.0 77.0 L165.0 35.0 z"></path><path stroke="#969696" fill="#969696" filter="url(#shadowBlur)" d="M275.0 105.0 L275.0 147.0 L165.0 147.0 L165.0 105.0 z"></path><path stroke="#969696" fill="#969696" filter="url(#shadowBlur)" d="M25.0 35.0 L25.0 77.0 L135.0 77.0 L135.0 35.0 z"></path><path stroke="#969696" fill="#969696" filter="url(#shadowBlur)" d="M305.0 77.0 L305.0 105.0 L415.0 105.0 L415.0 77.0 z"></path><path stroke="#969696" fill="#969696" filter="url(#shadowBlur)" d="M305.0 105.0 L305.0 133.0 L415.0 133.0 L415.0 105.0 z"></path><path stroke="#969696" fill="#969696" filter="url(#shadowBlur)" d="M275.0 77.0 L275.0 105.0 L165.0 105.0 L165.0 77.0 z"></path><path stroke="#969696" fill="#969696" filter="url(#shadowBlur)" d="M135.0 77.0 L135.0 105.0 L25.0 105.0 L25.0 77.0 z"></path><path stroke="#000000" stroke-width="1.0" stroke-linecap="round" stroke-linejoin="round" fill="#dddddd" d="M305.0 77.0 L305.0 35.0 L415.0 35.0 L415.0 77.0 z"></path><path stroke="#000000" stroke-width="1.0" stroke-linecap="round" stroke-linejoin="round" fill="#dddddd" d="M275.0 35.0 L275.0 77.0 L165.0 77.0 L165.0 35.0 z"></path><path stroke="#000000" stroke-width="1.0" stroke-linecap="round" stroke-linejoin="round" fill="#663344" d="M275.0 105.0 L275.0 147.0 L165.0 147.0 L165.0 105.0 z"></path><path stroke="#000000" stroke-width="1.0" stroke-linecap="round" stroke-linejoin="round" fill="#dddddd" d="M25.0 35.0 L25.0 77.0 L135.0 77.0 L135.0 35.0 z"></path><path stroke="#000000" stroke-width="1.0" stroke-linecap="round" stroke-linejoin="round" fill="#dddddd" d="M305.0 77.0 L305.0 105.0 L415.0 105.0 L415.0 77.0 z"></path><path stroke="#000000" stroke-width="1.0" stroke-linecap="round" stroke-linejoin="round" fill="#006688" d="M305.0 105.0 L305.0 133.0 L415.0 133.0 L415.0 105.0 z"></path><path stroke="#000000" stroke-width="1.0" stroke-linecap="round" stroke-linejoin="round" fill="#dddddd" d="M275.0 77.0 L275.0 105.0 L165.0 105.0 L165.0 77.0 z"></path><path stroke="#000000" stroke-width="1.0" stroke-linecap="round" stroke-linejoin="round" fill="#dddddd" d="M135.0 77.0 L135.0 105.0 L25.0 105.0 L25.0 77.0 z"></path><path stroke="#000000" stroke-width="1.0" stroke-dasharray="5.000000,5.000000" stroke-miterlimit="0" stroke-linecap="butt" stroke-linejoin="round" fill="white" d="M135.0 105.0 L135.0 133.0 L25.0 133.0 L25.0 105.0 z"></path><text x="313" y="54" font-family="sans-serif" font-size="15" stroke="none" fill="#000000"><![CDATA[Reference]]></text><text x="35" y="124" font-family="sans-serif" font-size="15" stroke="none" fill="#000000"><![CDATA[Default]]></text><text x="173" y="54" font-family="sans-serif" font-size="15" stroke="none" fill="#000000"><![CDATA[Reference]]></text><text x="172" y="124" font-family="sans-serif" font-size="15" stroke="none" fill="#ffffff"><![CDATA[A ]]></text><text x="33" y="54" font-family="sans-serif" font-size="15" stroke="none" fill="#000000"><![CDATA[Reference]]></text><text x="401" y="96" font-family="sans-serif" font-size="15" stroke="none" fill="#000000"><![CDATA[X ]]></text><text x="261" y="96" font-family="sans-serif" font-size="15" stroke="none" fill="#000000"><![CDATA[X ]]></text><text x="121" y="96" font-family="sans-serif" font-size="15" stroke="none" fill="#000000"><![CDATA[X ]]></text></g></svg>