<?xml version="1.0" encoding="UTF-8"?><svg xmlns="http://www.w3.org/2000/svg" width="660" height="224" version="1.0" shape-rendering="geometricPrecision"><defs><style type="text/css">@font-face {
  font-family: sans-serif;
}</style><filter id="shadowBlur" x="0" y="0" width="200%" height="200%"><feOffset in="SourceGraphic" dx="3.0003002" dy="3.0003002" result="offOut"></feOffset><feGaussianBlur in="offOut" stdDeviation="3"></feGaussianBlur></filter></defs><g stroke-width="1" stroke-linecap="square" stroke-linejoin="round"><rect x="0" y="0" width="660" height="224" style="fill: #ffffff"></rect><path stroke="#969696" fill="#969696" filter="url(#shadowBlur)" d="M635.0 35.0 L635.0 91.0 L445.0 91.0 L445.0 35.0 z"></path><path stroke="#969696" fill="#969696" filter="url(#shadowBlur)" d="M620.0 133.0 Q625.0 133.0 625.0 140.0 L625.0 182.0 Q625.0 189.0 620.0 189.0 L480.0 189.0 L480.0 189.0 Q475.0 189.0 475.0 182.0 L475.0 140.0 L475.0 140.0 Q475.0 133.0 480.0 133.0 L620.0 133.0 z"></path><path stroke="#969696" fill="#969696" filter="url(#shadowBlur)" d="M75.0 119.0 L75.0 91.0 L275.0 91.0 L275.0 119.0 z"></path><path stroke="#000000" stroke-width="1.0" stroke-linecap="round" stroke-linejoin="round" fill="#eeeeee" d="M635.0 35.0 L635.0 91.0 L445.0 91.0 L445.0 35.0 z"></path><path stroke="#000000" stroke-width="1.0" stroke-linecap="round" stroke-linejoin="round" fill="#ffaaaa" d="M620.0 133.0 Q625.0 133.0 625.0 140.0 L625.0 182.0 Q625.0 189.0 620.0 189.0 L480.0 189.0 L480.0 189.0 Q475.0 189.0 475.0 182.0 L475.0 140.0 L475.0 140.0 Q475.0 133.0 480.0 133.0 L620.0 133.0 z"></path><path stroke="#000000" stroke-width="1.0" stroke-linecap="round" stroke-linejoin="round" fill="white" d="M75.0 119.0 L75.0 91.0 L275.0 91.0 L275.0 119.0 z"></path><path stroke="#000000" stroke-width="1.0" stroke-linecap="round" stroke-linejoin="round" fill="none" d="M175.0 133.0 L175.0 161.0 L465.0 161.0 "></path><path stroke="#000000" stroke-width="1.0" stroke-linecap="round" stroke-linejoin="round" fill="none" d="M275.0 105.0 L395.0 105.0 L395.0 63.0 L435.0 63.0 "></path><path stroke="none" stroke-width="1.0" stroke-linecap="round" stroke-linejoin="round" fill="#000000" d="M430.0 56.0 L440.0 63.0 L430.0 70.0 z"></path><path stroke="none" stroke-width="1.0" stroke-linecap="round" stroke-linejoin="round" fill="#000000" d="M175.0 126.0 L170.0 140.0 L180.0 140.0 z"></path><path stroke="none" stroke-width="1.0" stroke-linecap="round" stroke-linejoin="round" fill="#000000" d="M460.0 154.0 L470.0 161.0 L460.0 168.0 z"></path><text x="514" y="68" font-family="sans-serif" font-size="15" stroke="none" fill="#000000"><![CDATA[Nice!]]></text><text x="113" y="110" font-family="sans-serif" font-size="15" stroke="none" fill="#000000"><![CDATA[Art with text?]]></text><text x="517" y="166" font-family="sans-serif" font-size="15" stroke="none" fill="#000000"><![CDATA[colors!]]></text></g></svg>