<?xml version="1.0" encoding="UTF-8" standalone="no"?>
<!DOCTYPE svg PUBLIC "-//W3C//DTD SVG 1.1//EN"
 "http://www.w3.org/Graphics/SVG/1.1/DTD/svg11.dtd">
<!-- Generated by graphviz version 2.40.1 (20161225.0304)
 -->
<!-- Title: Example Pages: 1 -->
<svg width="730pt" height="248pt"
 viewBox="0.00 0.00 729.55 248.00" xmlns="http://www.w3.org/2000/svg" xmlns:xlink="http://www.w3.org/1999/xlink">
<g id="graph0" class="graph" transform="scale(1 1) rotate(0) translate(4 244)">
<title>Example</title>
<polygon fill="#ffffff" stroke="transparent" points="-4,4 -4,-244 725.5461,-244 725.5461,4 -4,4"/>
<!-- A -->
<g id="node1" class="node">
<title>A</title>
<ellipse fill="none" stroke="#000000" cx="222.5461" cy="-222" rx="62.2891" ry="18"/>
<text text-anchor="middle" x="222.5461" y="-218.3" font-family="Times,serif" font-size="14.00" fill="#000000">web&#45;server</text>
</g>
<!-- B -->
<g id="node2" class="node">
<title>B</title>
<ellipse fill="none" stroke="#000000" cx="222.5461" cy="-120" rx="85.2851" ry="18"/>
<text text-anchor="middle" x="222.5461" y="-116.3" font-family="Times,serif" font-size="14.00" fill="#000000">event&#45;processor</text>
</g>
<!-- A&#45;&gt;B -->
<g id="edge1" class="edge">
<title>A&#45;&gt;B</title>
<path fill="none" stroke="#00aa00" d="M222.5461,-203.7644C222.5461,-188.317 222.5461,-165.9149 222.5461,-148.164"/>
<polygon fill="#00aa00" stroke="#00aa00" points="226.0462,-148.0776 222.5461,-138.0777 219.0462,-148.0777 226.0462,-148.0776"/>
<text text-anchor="middle" x="368.5461" y="-174.8" font-family="Times,serif" font-size="14.00" fill="#000000">OK(pass=3/3 100%),</text>
<text text-anchor="middle" x="368.5461" y="-159.8" font-family="Times,serif" font-size="14.00" fill="#000000">Check(within=10s,ok=3,warn=0,fail=0)</text>
</g>
<!-- C -->
<g id="node3" class="node">
<title>C</title>
<ellipse fill="none" stroke="#000000" cx="43.5461" cy="-18" rx="43.5923" ry="18"/>
<text text-anchor="middle" x="43.5461" y="-14.3" font-family="Times,serif" font-size="14.00" fill="#000000">journal</text>
</g>
<!-- B&#45;&gt;C -->
<g id="edge3" class="edge">
<title>B&#45;&gt;C</title>
<path fill="none" stroke="#aa0000" d="M141.8553,-114.0045C99.488,-108.9981 53.6832,-99.9901 40.5461,-84 31.9855,-73.5801 31.9207,-58.8105 34.3538,-45.8841"/>
<polygon fill="#aa0000" stroke="#aa0000" points="37.788,-46.5724 36.726,-36.0309 30.9824,-44.9339 37.788,-46.5724"/>
<text text-anchor="middle" x="208.0461" y="-72.8" font-family="Times,serif" font-size="14.00" fill="#000000">NOK(pass=1/4 25%),</text>
<text text-anchor="middle" x="208.0461" y="-57.8" font-family="Times,serif" font-size="14.00" fill="#000000">Check=(within=1000ms,ok=3,warn=1,fail=0)</text>
</g>
<!-- D -->
<g id="node4" class="node">
<title>D</title>
<ellipse fill="none" stroke="#000000" cx="401.5461" cy="-18" rx="52.7911" ry="18"/>
<text text-anchor="middle" x="401.5461" y="-14.3" font-family="Times,serif" font-size="14.00" fill="#000000">database</text>
</g>
<!-- B&#45;&gt;D -->
<g id="edge2" class="edge">
<title>B&#45;&gt;D</title>
<path fill="none" stroke="#aaaa00" d="M294.91,-110.3802C329.7738,-104.3946 366.762,-95.6081 379.5461,-84 390.2003,-74.3259 395.7027,-59.3601 398.5409,-46.1239"/>
<polygon fill="#aaaa00" stroke="#aaaa00" points="402.034,-46.4645 400.2935,-36.0136 395.1368,-45.2689 402.034,-46.4645"/>
<text text-anchor="middle" x="558.5461" y="-72.8" font-family="Times,serif" font-size="14.00" fill="#000000">WARN(pass=4/5 80%),</text>
<text text-anchor="middle" x="558.5461" y="-57.8" font-family="Times,serif" font-size="14.00" fill="#000000">Check=(within=500ms,ok=3,warn=1,fail=2)</text>
</g>
</g>
</svg>
